<?xml version="1.0" encoding="UTF-8"?>
<svg xmlns="http://www.w3.org/2000/svg" xmlns:xlink="http://www.w3.org/1999/xlink" width="35px" height="35px" viewBox="0 0 80 80" version="1.1">
    
    <title>qm white</title>
    <desc>Created with Sketch.</desc>
    <g id="qm-white" stroke="none" stroke-width="1" fill="none" fill-rule="evenodd">
        <path d="M77.389798,39.4331313 C77.389798,16.499798 62.3110101,3 40.0968687,3 C17.8811111,3 2.61,16.5014141 2.61,39.4331313 C2.61,62.3664646 17.8811111,75.8662626 40.0968687,75.8662626 C47.7348485,75.8662626 54.4742424,74.2824242 60.1275758,71.3022222 L65.5174747,76.8036364 L76.3263636,66.0836364 L71.3340404,61.0735354 C75.2047475,55.3167677 77.389798,48.0682828 77.389798,39.4331313 Z M58.3772727,48.2460606 C58.3772727,53.4177778 54.170404,57.6278788 49.000303,57.6278788 L31.3453535,57.6278788 C28.8354545,57.6278788 26.4807071,56.6517172 24.7126263,54.8771717 C22.9429293,53.1123232 21.9667677,50.7543434 21.9667677,48.2460606 L21.9667677,30.5684848 C21.9667677,28.060202 22.9429293,25.7054545 24.7126263,23.9357576 C26.4823232,22.1644444 28.8386869,21.1882828 31.3453535,21.1882828 L49.0019192,21.1882828 C54.170404,21.1882828 58.3772727,25.3967677 58.3772727,30.570101 L58.3772727,48.2460606 Z M49.0019192,25.2286869 L31.3453535,25.2286869 C29.9182828,25.2286869 28.5784848,25.7846465 27.5716162,26.7931313 C26.5631313,27.8 26.0071717,29.1414141 26.0071717,30.570101 L26.0071717,48.2476768 C26.0071717,49.6763636 26.5631313,51.0161616 27.5716162,52.0230303 C28.580101,53.0347475 29.9182828,53.5890909 31.3453535,53.5890909 L49.000303,53.5890909 C51.9417172,53.5890909 54.3368687,51.1939394 54.3368687,48.2476768 L54.3368687,30.5684848 C54.3368687,27.6238384 51.9433333,25.2286869 49.0019192,25.2286869 Z" id="Shape" fill="#FFFFFF" fill-rule="nonzero"/>
    </g>
</svg>
